<svg xmlns="http://www.w3.org/2000/svg" width="23.881" height="16.98" viewBox="0 0 23.881 16.98">
  <path id="icn-address" d="M25.6,34H5.522a1.9,1.9,0,0,1-1.9-1.9V18.924a1.9,1.9,0,0,1,1.9-1.9H25.6a1.9,1.9,0,0,1,1.9,1.9V32.1A1.9,1.9,0,0,1,25.6,34ZM6.3,32.394H24.82l-5.451-5.716L17.155,29h0a2.279,2.279,0,0,1-3.188,0l-2.213-2.318Zm14.178-6.881,5.412,5.674V19.839l-5.412,5.674ZM5.23,19.839V31.187l5.412-5.674ZM6.3,18.633c2.506,2.628,7.2,7.552,8.829,9.254h0a.607.607,0,0,0,.857,0c1.605-1.679,6.333-6.635,8.831-9.256Z" transform="translate(-3.621 -17.023)" fill="#38312c"/>
</svg>
