<svg xmlns="http://www.w3.org/2000/svg" width="25.979" height="25.93"><path fill="#38312c" stroke="#38312c" stroke-width=".6" d="M.3 19.126c.078-.463.139-.929.236-1.389a18.093 18.093 0 0 1 2-4.876A26.045 26.045 0 0 1 7.565 6.44a25.733 25.733 0 0 1 8.33-5.342 10.826 10.826 0 0 1 3.562-.783 4.291 4.291 0 0 1 3.284 1.174c.726.709 1.48 1.4 2.142 2.159a2.473 2.473 0 0 1-.047 3.6 70.186 70.186 0 0 1-3.522 3.487 2.394 2.394 0 0 1-3.254 0c-.676-.595-1.291-1.254-1.936-1.882-.054-.057-.1-.119-.2-.223a18.347 18.347 0 0 0-7.207 7.228l1.517 1.5a3.779 3.779 0 0 1 1.023 1.357 2.266 2.266 0 0 1-.439 2.47q-1.8 1.889-3.7 3.684a2.415 2.415 0 0 1-3.221.064c-.892-.757-1.737-1.6-2.555-2.443a3.77 3.77 0 0 1-.977-2.19 1.735 1.735 0 0 0-.05-.173Zm1.524.375a2.9 2.9 0 0 0 .885 2.247c.595.568 1.175 1.149 1.764 1.724.075.074.154.143.236.21a1.035 1.035 0 0 0 1.487-.031c.5-.463.974-.953 1.456-1.433.625-.625 1.254-1.244 1.869-1.875a1.014 1.014 0 0 0 .041-1.476c-.078-.095-.165-.179-.253-.267-.6-.6-1.2-1.2-1.794-1.8a1.147 1.147 0 0 1-.24-1.437c.186-.368.372-.733.581-1.088a18.7 18.7 0 0 1 3.5-4.2 15.118 15.118 0 0 1 3.947-2.777 1.283 1.283 0 0 1 1.777.338c.6.618 1.24 1.28 1.889 1.892a.966.966 0 0 0 1.416.024c.088-.074.169-.152.25-.23l2.982-2.966a1.128 1.128 0 0 0 0-1.834c-.632-.635-1.189-1.234-1.822-1.812a3.377 3.377 0 0 0-1.013-.676 4.31 4.31 0 0 0-2.485-.031 15.094 15.094 0 0 0-3.632 1.318A24.815 24.815 0 0 0 9.086 7.16a24.2 24.2 0 0 0-6.691 9.692 8.805 8.805 0 0 0-.558 2.649Z"/></svg>