<svg xmlns="http://www.w3.org/2000/svg" width="24.516" height="24.513"><path fill="#38312c" d="M12.26 0A12.253 12.253 0 0 0 .005 12.256a11.378 11.378 0 0 0 1.369 5.612L.148 21.222a2.45 2.45 0 0 0 3.14 3.142l3.354-1.226a11.383 11.383 0 0 0 5.617 1.372 12.174 12.174 0 0 0 6.838-2.092l-1.527-1.932a9.745 9.745 0 0 1-5.311 1.573 8.607 8.607 0 0 1-5.311-1.634L2.456 22.06l1.634-4.494a8.607 8.607 0 0 1-1.634-5.311 9.804 9.804 0 1 1 19.609 0v1.635a2.043 2.043 0 0 1-4.085 0v-1.634a5.72 5.72 0 1 0-1.721 4.085 4.494 4.494 0 0 0 8.253-2.451v-2.043A12.255 12.255 0 0 0 12.26 0Zm0 15.524a3.269 3.269 0 1 1 2.311-.958 3.269 3.269 0 0 1-2.311.958Z"/></svg>