<svg xmlns="http://www.w3.org/2000/svg" width="32.922" height="24"><path fill="#38312c" d="m32.876 15.017-2.751-6.761a1.717 1.717 0 0 0-1.6-1.073h-3.876V4.611a1.671 1.671 0 0 0-1.67-1.67H3.566a1.671 1.671 0 0 0-1.67 1.67v4.684H.616a.616.616 0 0 0 0 1.231h1.28v9.121a1.671 1.671 0 0 0 1.67 1.67h1.822a3.3 3.3 0 0 0 6.48 0h13.057a3.3 3.3 0 0 0 6.48 0h.9a.615.615 0 0 0 .616-.616v-5.457a.622.622 0 0 0-.046-.233Zm-1.486-.385-4.038-.017.021-3.735h2.49ZM7.26 9.293H3.125V4.609a.438.438 0 0 1 .438-.438h19.416a.438.438 0 0 1 .438.438v11.038H3.131v-5.12h4.133a.616.616 0 1 0 0-1.231ZM3.125 19.647v-2.768h20.289v3.207H11.868a3.3 3.3 0 0 0-6.48 0H3.566a.438.438 0 0 1-.438-.438Zm5.5 3.122a2.066 2.066 0 1 1 2.067-2.067 2.07 2.07 0 0 1-2.067 2.067Zm19.538 0a2.066 2.066 0 1 1 2.067-2.067 2.07 2.07 0 0 1-2.063 2.067Zm3.24-2.683a3.3 3.3 0 0 0-6.48 0h-.282V8.417h3.886a.491.491 0 0 1 .454.305l.375.923h-1.985a1.254 1.254 0 0 0-1.254 1.254v3.715a1.254 1.254 0 0 0 1.254 1.254h4.316v4.221h-.282ZM0 .617A.615.615 0 0 1 .616.001h6.3a.616.616 0 1 1 0 1.231h-6.3A.615.615 0 0 1 0 .617Zm11.314 6.714H4.825a.616.616 0 1 1 0-1.231h6.488a.616.616 0 1 1 0 1.231ZM9.565.617a.615.615 0 0 1 .616-.616h1.315a.616.616 0 1 1 0 1.231h-1.315a.615.615 0 0 1-.616-.615Z"/></svg>